{
  "accessors": [
    {
      "bufferView": 2,
      "componentType": 5126,
      "count": 562,
      "max": [
        1.4319490194320679,
        0.4101549983024597,
        3.7084341049194336
      ],
      "min": [
        -0.3067939877510071,
        -0.8483060002326965,
        2.5574820041656494
      ],
      "type": "VEC3"
    },
    {
      "bufferView": 2,
      "byteOffset": 6744,
      "componentType": 5126,
      "count": 562,
      "max": [
        0.9981465339660645,
        0.9986413717269897,
        0.9990895390510559
      ],
      "min": [
        -0.9959063529968262,
        -0.8996555805206299,
        -0.9098191261291504
      ],
      "type": "VEC3"
    },
    {
      "bufferView": 1,
      "componentType": 5126,
      "count": 562,
      "max": [
        0.5994459986686707,
        0.8548150062561035
      ],
      "min": [
        0.4815169870853424,
        0.607912003993988
      ],
      "type": "VEC2"
    },
    {
      "bufferView": 0,
      "componentType": 5125,
      "count": 3000,
      "type": "SCALAR"
    },
    {
      "bufferView": 2,
      "byteOffset": 13488,
      "componentType": 5126,
      "count": 850,
      "max": [
        1.1687380075454712,
        0.05919799953699112,
        2.553708076477051
      ],
      "min": [
        -0.08097600191831589,
        -0.8457220196723938,
        1.8323320150375366
      ],
      "type": "VEC3"
    },
    {
      "bufferView": 2,
      "byteOffset": 23688,
      "componentType": 5126,
      "count": 850,
      "max": [
        0.9990153312683105,
        0.996425449848175,
        1.0
      ],
      "min": [
        -0.9990153312683105,
        -0.9980328679084778,
        -1.0
      ],
      "type": "VEC3"
    },
    {
      "bufferView": 1,
      "byteOffset": 4496,
      "componentType": 5126,
      "count": 850,
      "max": [
        0.9814839959144592,
        0.49636799097061157
      ],
      "min": [
        0.737995982170105,
        0.4255239963531494
      ],
      "type": "VEC2"
    },
    {
      "bufferView": 0,
      "byteOffset": 12000,
      "componentType": 5125,
      "count": 3840,
      "type": "SCALAR"
    },
    {
      "bufferView": 2,
      "byteOffset": 33888,
      "componentType": 5126,
      "count": 602,
      "max": [
        0.6332319974899292,
        6.490868091583252,
        5.475802898406982
      ],
      "min": [
        -0.010905999690294266,
        5.842992782592773,
        4.925914764404297
      ],
      "type": "VEC3"
    },
    {
      "bufferView": 2,
      "byteOffset": 41112,
      "componentType": 5126,
      "count": 602,
      "max": [
        0.9642868638038635,
        0.9985818862915039,
        0.9998109936714172
      ],
      "min": [
        -0.9996485114097595,
        -0.9615018963813782,
        -0.9896981120109558
      ],
      "type": "VEC3"
    },
    {
      "bufferView": 1,
      "byteOffset": 11296,
      "componentType": 5126,
      "count": 602,
      "max": [
        0.6839659810066223,
        0.9861189723014832
      ],
      "min": [
        0.5855820178985596,
        0.5453580021858215
      ],
      "type": "VEC2"
    },
    {
      "bufferView": 0,
      "byteOffset": 27360,
      "componentType": 5125,
      "count": 3240,
      "type": "SCALAR"
    },
    {
      "bufferView": 2,
      "byteOffset": 48336,
      "componentType": 5126,
      "count": 1688,
      "max": [
        1.634531021118164,
        6.486780166625977,
        5.473834037780762
      ],
      "min": [
        -0.3016220033168793,
        -1.0101139545440674,
        2.533268928527832
      ],
      "type": "VEC3"
    },
    {
      "bufferView": 2,
      "byteOffset": 68592,
      "componentType": 5126,
      "count": 1688,
      "max": [
        0.9997132420539856,
        0.9987103343009949,
        0.9999637603759766
      ],
      "min": [
        -0.9997132420539856,
        -0.9987103343009949,
        -0.9999637603759766
      ],
      "type": "VEC3"
    },
    {
      "bufferView": 1,
      "byteOffset": 16112,
      "componentType": 5126,
      "count": 1688,
      "max": [
        0.3636060059070587,
        0.3726780116558075
      ],
      "min": [
        0.03774600103497505,
        0.006066999863833189
      ],
      "type": "VEC2"
    },
    {
      "bufferView": 0,
      "byteOffset": 40320,
      "componentType": 5125,
      "count": 9600,
      "type": "SCALAR"
    },
    {
      "bufferView": 2,
      "byteOffset": 88848,
      "componentType": 5126,
      "count": 800,
      "max": [
        4.543127059936523,
        4.452365875244141,
        4.1882548332214355
      ],
      "min": [
        -4.745457172393799,
        -0.9076030254364014,
        0.47317400574684143
      ],
      "type": "VEC3"
    },
    {
      "bufferView": 2,
      "byteOffset": 98448,
      "componentType": 5126,
      "count": 800,
      "max": [
        0.9991225004196167,
        0.9930790066719055,
        0.9996814727783203
      ],
      "min": [
        -0.9745426177978516,
        -0.9930508732795715,
        -0.9965003728866577
      ],
      "type": "VEC3"
    },
    {
      "bufferView": 1,
      "byteOffset": 29616,
      "componentType": 5126,
      "count": 800,
      "max": [
        0.875,
        1.0
      ],
      "min": [
        0.125,
        0.0
      ],
      "type": "VEC2"
    },
    {
      "bufferView": 0,
      "byteOffset": 78720,
      "componentType": 5125,
      "count": 2700,
      "type": "SCALAR"
    },
    {
      "bufferView": 2,
      "byteOffset": 108048,
      "componentType": 5126,
      "count": 3560,
      "max": [
        1.9699809551239014,
        9.213480949401855,
        7.868511199951172
      ],
      "min": [
        -1.9699809551239014,
        5.544992923736572,
        2.677396059036255
      ],
      "type": "VEC3"
    },
    {
      "bufferView": 2,
      "byteOffset": 150768,
      "componentType": 5126,
      "count": 3560,
      "max": [
        1.0,
        1.0,
        1.0
      ],
      "min": [
        -1.0,
        -1.0,
        -1.0
      ],
      "type": "VEC3"
    },
    {
      "bufferView": 3,
      "componentType": 5126,
      "count": 3560,
      "max": [
        0.999999463558197,
        0.9999916553497314,
        0.9999271035194397,
        1.0
      ],
      "min": [
        -1.0,
        -0.9998493790626526,
        -0.999927282333374,
        -1.0
      ],
      "type": "VEC4"
    },
    {
      "bufferView": 1,
      "byteOffset": 36016,
      "componentType": 5126,
      "count": 3560,
      "max": [
        0.9841259717941284,
        0.9896889925003052
      ],
      "min": [
        0.01510700024664402,
        0.012350000441074371
      ],
      "type": "VEC2"
    },
    {
      "bufferView": 0,
      "byteOffset": 89520,
      "componentType": 5125,
      "count": 18048,
      "type": "SCALAR"
    },
    {
      "bufferView": 2,
      "byteOffset": 193488,
      "componentType": 5126,
      "count": 7851,
      "max": [
        0.9680629968643188,
        7.4423370361328125,
        6.088662147521973
      ],
      "min": [
        -0.903564989566803,
        5.376830101013184,
        2.9349660873413086
      ],
      "type": "VEC3"
    },
    {
      "bufferView": 2,
      "byteOffset": 287700,
      "componentType": 5126,
      "count": 7851,
      "max": [
        0.9999735355377197,
        0.9999545216560364,
        0.999984860420227
      ],
      "min": [
        -0.9999721050262451,
        -0.999904215335846,
        -0.9999989867210388
      ],
      "type": "VEC3"
    },
    {
      "bufferView": 3,
      "byteOffset": 56960,
      "componentType": 5126,
      "count": 7851,
      "max": [
        0.9999992847442627,
        0.9999042749404907,
        0.9998781681060791,
        1.0
      ],
      "min": [
        -0.9995887875556946,
        -0.9999042749404907,
        -0.999939501285553,
        -1.0
      ],
      "type": "VEC4"
    },
    {
      "bufferView": 1,
      "byteOffset": 64496,
      "componentType": 5126,
      "count": 7851,
      "max": [
        0.988152027130127,
        0.9878529906272888
      ],
      "min": [
        0.015542999841272831,
        0.01576000079512596
      ],
      "type": "VEC2"
    },
    {
      "bufferView": 0,
      "byteOffset": 161712,
      "componentType": 5125,
      "count": 40470,
      "type": "SCALAR"
    },
    {
      "bufferView": 2,
      "byteOffset": 381912,
      "componentType": 5126,
      "count": 7248,
      "max": [
        5.497111797332764,
        6.165144920349121,
        4.70414400100708
      ],
      "min": [
        -4.074090003967285,
        -5.035402774810791,
        -2.9752330780029297
      ],
      "type": "VEC3"
    },
    {
      "bufferView": 2,
      "byteOffset": 468888,
      "componentType": 5126,
      "count": 7248,
      "max": [
        0.9999374747276306,
        0.9999494552612305,
        0.9999996423721313
      ],
      "min": [
        -0.9999193549156189,
        -0.9999074935913086,
        -0.9999996423721313
      ],
      "type": "VEC3"
    },
    {
      "bufferView": 3,
      "byteOffset": 182576,
      "componentType": 5126,
      "count": 7248,
      "max": [
        0.9999937415122986,
        0.9999108910560608,
        0.9989729523658752,
        1.0
      ],
      "min": [
        -0.9999997019767761,
        -0.999707818031311,
        -0.9994898438453674,
        -1.0
      ],
      "type": "VEC4"
    },
    {
      "bufferView": 1,
      "byteOffset": 127304,
      "componentType": 5126,
      "count": 7248,
      "max": [
        0.9839239716529846,
        0.9935759902000427
      ],
      "min": [
        0.01800600066781044,
        0.01015700027346611
      ],
      "type": "VEC2"
    },
    {
      "bufferView": 0,
      "byteOffset": 323592,
      "componentType": 5125,
      "count": 37470,
      "type": "SCALAR"
    },
    {
      "bufferView": 2,
      "byteOffset": 555864,
      "componentType": 5126,
      "count": 7818,
      "max": [
        4.96808385848999,
        5.883855819702148,
        4.346418857574463
      ],
      "min": [
        -5.220251083374023,
        -1.044842004776001,
        -3.281243085861206
      ],
      "type": "VEC3"
    },
    {
      "bufferView": 2,
      "byteOffset": 649680,
      "componentType": 5126,
      "count": 7818,
      "max": [
        0.999997615814209,
        0.99924635887146,
        0.9999972581863403
      ],
      "min": [
        -0.999997615814209,
        -0.9999998807907104,
        -0.9999904632568359
      ],
      "type": "VEC3"
    },
    {
      "bufferView": 3,
      "byteOffset": 298544,
      "componentType": 5126,
      "count": 7818,
      "max": [
        0.9999761581420898,
        0.999909520149231,
        0.9998478293418884,
        1.0
      ],
      "min": [
        -0.9999913573265076,
        -0.9999560713768005,
        -0.9999635219573975,
        -1.0
      ],
      "type": "VEC4"
    },
    {
      "bufferView": 1,
      "byteOffset": 185288,
      "componentType": 5126,
      "count": 7818,
      "max": [
        0.9785490036010742,
        0.9854350090026855
      ],
      "min": [
        0.0243149995803833,
        0.011176000349223614
      ],
      "type": "VEC2"
    },
    {
      "bufferView": 0,
      "byteOffset": 473472,
      "componentType": 5125,
      "count": 41856,
      "type": "SCALAR"
    },
    {
      "bufferView": 2,
      "byteOffset": 743496,
      "componentType": 5126,
      "count": 6370,
      "max": [
        0.9584270119667053,
        7.337228775024414,
        5.783012866973877
      ],
      "min": [
        -1.0192420482635498,
        5.810142993927002,
        2.9397270679473877
      ],
      "type": "VEC3"
    },
    {
      "bufferView": 2,
      "byteOffset": 819936,
      "componentType": 5126,
      "count": 6370,
      "max": [
        0.9999986290931702,
        0.9995308518409729,
        0.9999433755874634
      ],
      "min": [
        -0.9999997615814209,
        -0.9999438524246216,
        -1.0
      ],
      "type": "VEC3"
    },
    {
      "bufferView": 3,
      "byteOffset": 423632,
      "componentType": 5126,
      "count": 6370,
      "max": [
        0.9999985098838806,
        0.999147891998291,
        0.999836802482605,
        1.0
      ],
      "min": [
        -0.9995850920677185,
        -0.9997469186782837,
        -0.9990055561065674,
        -1.0
      ],
      "type": "VEC4"
    },
    {
      "bufferView": 1,
      "byteOffset": 247832,
      "componentType": 5126,
      "count": 6370,
      "max": [
        0.9781829714775085,
        0.9792219996452332
      ],
      "min": [
        0.025536000728607178,
        0.02302899956703186
      ],
      "type": "VEC2"
    },
    {
      "bufferView": 0,
      "byteOffset": 640896,
      "componentType": 5125,
      "count": 33600,
      "type": "SCALAR"
    }
  ],
  "asset": {
    "extras": {
      "author": "efrenfreeze (https://sketchfab.com/efrenfreeze)",
      "license": "CC-BY-4.0 (http://creativecommons.org/licenses/by/4.0/)",
      "source": "https://sketchfab.com/3d-models/gargantuar-plants-vs-zombies-2-a8983757f94d4c1798977393cc6ce75d",
      "title": "Gargantuar Plants vs Zombies 2"
    },
    "generator": "Sketchfab-12.65.0",
    "version": "2.0"
  },
  "bufferViews": [
    {
      "buffer": 0,
      "byteLength": 775296,
      "name": "floatBufferViews",
      "target": 34963
    },
    {
      "buffer": 0,
      "byteLength": 298792,
      "byteOffset": 775296,
      "byteStride": 8,
      "name": "floatBufferViews",
      "target": 34962
    },
    {
      "buffer": 0,
      "byteLength": 896376,
      "byteOffset": 1074088,
      "byteStride": 12,
      "name": "floatBufferViews",
      "target": 34962
    },
    {
      "buffer": 0,
      "byteLength": 525552,
      "byteOffset": 1970464,
      "byteStride": 16,
      "name": "floatBufferViews",
      "target": 34962
    }
  ],
  "buffers": [
    {
      "byteLength": 2496016,
      "uri": "scene.bin"
    }
  ],
  "images": [
    {
      "uri": "textures/lambert10SG_baseColor.png"
    },
    {
      "uri": "textures/lambert10SG_normal.png"
    },
    {
      "uri": "textures/lambert11SG_baseColor.png"
    },
    {
      "uri": "textures/lambert11SG_normal.png"
    },
    {
      "uri": "textures/lambert7SG_baseColor.png"
    },
    {
      "uri": "textures/lambert7SG_metallicRoughness.png"
    },
    {
      "uri": "textures/lambert7SG_emissive.png"
    },
    {
      "uri": "textures/lambert7SG_normal.png"
    },
    {
      "uri": "textures/lambert8SG_baseColor.png"
    },
    {
      "uri": "textures/lambert8SG_metallicRoughness.png"
    },
    {
      "uri": "textures/lambert8SG_normal.png"
    },
    {
      "uri": "textures/lambert9SG_baseColor.png"
    }
  ],
  "materials": [
    {
      "doubleSided": true,
      "name": "aiStandardSurface1SG",
      "pbrMetallicRoughness": {
        "baseColorFactor": [
          0.5,
          0.5,
          0.5,
          1.0
        ],
        "metallicFactor": 0.0
      }
    },
    {
      "doubleSided": true,
      "name": "aiStandardSurface2SG",
      "pbrMetallicRoughness": {
        "baseColorFactor": [
          0.5,
          0.5,
          0.5,
          1.0
        ],
        "metallicFactor": 0.0
      }
    },
    {
      "doubleSided": true,
      "name": "aiStandardSurface3SG",
      "pbrMetallicRoughness": {
        "baseColorFactor": [
          0.5,
          0.5,
          0.5,
          1.0
        ],
        "metallicFactor": 0.0
      }
    },
    {
      "alphaMode": "BLEND",
      "doubleSided": true,
      "name": "aiStandardSurface6SG",
      "pbrMetallicRoughness": {
        "baseColorFactor": [
          0.5,
          0.5,
          0.5,
          0.15
        ],
        "metallicFactor": 0.0,
        "roughnessFactor": 0.3
      }
    },
    {
      "doubleSided": true,
      "name": "blinn1SG",
      "pbrMetallicRoughness": {
        "baseColorFactor": [
          0.0,
          0.0,
          0.0,
          1.0
        ],
        "metallicFactor": 0.0
      }
    },
    {
      "doubleSided": true,
      "name": "lambert10SG",
      "normalTexture": {
        "index": 1
      },
      "pbrMetallicRoughness": {
        "baseColorTexture": {
          "index": 0
        },
        "metallicFactor": 0.0
      }
    },
    {
      "doubleSided": true,
      "name": "lambert11SG",
      "normalTexture": {
        "index": 3
      },
      "pbrMetallicRoughness": {
        "baseColorTexture": {
          "index": 2
        },
        "metallicFactor": 0.0
      }
    },
    {
      "doubleSided": true,
      "emissiveFactor": [
        1.0,
        1.0,
        1.0
      ],
      "emissiveTexture": {
        "index": 6
      },
      "name": "lambert7SG",
      "normalTexture": {
        "index": 7
      },
      "pbrMetallicRoughness": {
        "baseColorTexture": {
          "index": 4
        },
        "metallicFactor": 0.1,
        "metallicRoughnessTexture": {
          "index": 5
        }
      }
    },
    {
      "doubleSided": true,
      "name": "lambert8SG",
      "normalTexture": {
        "index": 10
      },
      "pbrMetallicRoughness": {
        "baseColorTexture": {
          "index": 8
        },
        "metallicFactor": 0.05,
        "metallicRoughnessTexture": {
          "index": 9
        }
      }
    },
    {
      "doubleSided": true,
      "name": "lambert9SG",
      "normalTexture": {
        "index": 3
      },
      "pbrMetallicRoughness": {
        "baseColorTexture": {
          "index": 11
        },
        "metallicFactor": 0.0
      }
    }
  ],
  "meshes": [
    {
      "name": "Object_0",
      "primitives": [
        {
          "attributes": {
            "NORMAL": 1,
            "POSITION": 0,
            "TEXCOORD_0": 2
          },
          "indices": 3,
          "material": 0,
          "mode": 4
        }
      ]
    },
    {
      "name": "Object_1",
      "primitives": [
        {
          "attributes": {
            "NORMAL": 5,
            "POSITION": 4,
            "TEXCOORD_0": 6
          },
          "indices": 7,
          "material": 1,
          "mode": 4
        }
      ]
    },
    {
      "name": "Object_2",
      "primitives": [
        {
          "attributes": {
            "NORMAL": 9,
            "POSITION": 8,
            "TEXCOORD_0": 10
          },
          "indices": 11,
          "material": 2,
          "mode": 4
        }
      ]
    },
    {
      "name": "Object_3",
      "primitives": [
        {
          "attributes": {
            "NORMAL": 13,
            "POSITION": 12,
            "TEXCOORD_0": 14
          },
          "indices": 15,
          "material": 3,
          "mode": 4
        }
      ]
    },
    {
      "name": "Object_4",
      "primitives": [
        {
          "attributes": {
            "NORMAL": 17,
            "POSITION": 16,
            "TEXCOORD_0": 18
          },
          "indices": 19,
          "material": 4,
          "mode": 4
        }
      ]
    },
    {
      "name": "Object_5",
      "primitives": [
        {
          "attributes": {
            "NORMAL": 21,
            "POSITION": 20,
            "TANGENT": 22,
            "TEXCOORD_0": 23
          },
          "indices": 24,
          "material": 5,
          "mode": 4
        }
      ]
    },
    {
      "name": "Object_6",
      "primitives": [
        {
          "attributes": {
            "NORMAL": 26,
            "POSITION": 25,
            "TANGENT": 27,
            "TEXCOORD_0": 28
          },
          "indices": 29,
          "material": 6,
          "mode": 4
        }
      ]
    },
    {
      "name": "Object_7",
      "primitives": [
        {
          "attributes": {
            "NORMAL": 31,
            "POSITION": 30,
            "TANGENT": 32,
            "TEXCOORD_0": 33
          },
          "indices": 34,
          "material": 7,
          "mode": 4
        }
      ]
    },
    {
      "name": "Object_8",
      "primitives": [
        {
          "attributes": {
            "NORMAL": 36,
            "POSITION": 35,
            "TANGENT": 37,
            "TEXCOORD_0": 38
          },
          "indices": 39,
          "material": 8,
          "mode": 4
        }
      ]
    },
    {
      "name": "Object_9",
      "primitives": [
        {
          "attributes": {
            "NORMAL": 41,
            "POSITION": 40,
            "TANGENT": 42,
            "TEXCOORD_0": 43
          },
          "indices": 44,
          "material": 9,
          "mode": 4
        }
      ]
    }
  ],
  "nodes": [
    {
      "children": [
        1
      ],
      "matrix": [
        1.0,
        0.0,
        0.0,
        0.0,
        0.0,
        2.220446049250313e-16,
        -1.0,
        0.0,
        0.0,
        1.0,
        2.220446049250313e-16,
        0.0,
        0.0,
        0.0,
        0.0,
        1.0
      ],
      "name": "Sketchfab_model"
    },
    {
      "children": [
        2,
        3,
        4,
        5,
        6,
        7,
        8,
        9,
        10,
        11
      ],
      "name": "Zombi_SketchFab.obj.cleaner.materialmerger.gles"
    },
    {
      "mesh": 0,
      "name": "Object_2"
    },
    {
      "mesh": 1,
      "name": "Object_3"
    },
    {
      "mesh": 2,
      "name": "Object_4"
    },
    {
      "mesh": 3,
      "name": "Object_5"
    },
    {
      "mesh": 4,
      "name": "Object_6"
    },
    {
      "mesh": 5,
      "name": "Object_7"
    },
    {
      "mesh": 6,
      "name": "Object_8"
    },
    {
      "mesh": 7,
      "name": "Object_9"
    },
    {
      "mesh": 8,
      "name": "Object_10"
    },
    {
      "mesh": 9,
      "name": "Object_11"
    }
  ],
  "samplers": [
    {
      "magFilter": 9729,
      "minFilter": 9987,
      "wrapS": 10497,
      "wrapT": 10497
    }
  ],
  "scene": 0,
  "scenes": [
    {
      "name": "Sketchfab_Scene",
      "nodes": [
        0
      ]
    }
  ],
  "textures": [
    {
      "sampler": 0,
      "source": 0
    },
    {
      "sampler": 0,
      "source": 1
    },
    {
      "sampler": 0,
      "source": 2
    },
    {
      "sampler": 0,
      "source": 3
    },
    {
      "sampler": 0,
      "source": 4
    },
    {
      "sampler": 0,
      "source": 5
    },
    {
      "sampler": 0,
      "source": 6
    },
    {
      "sampler": 0,
      "source": 7
    },
    {
      "sampler": 0,
      "source": 8
    },
    {
      "sampler": 0,
      "source": 9
    },
    {
      "sampler": 0,
      "source": 10
    },
    {
      "sampler": 0,
      "source": 11
    }
  ]
}
