{
  "accessors": [
    {
      "bufferView": 2,
      "componentType": 5126,
      "count": 2537,
      "max": [
        0.7329038977622986,
        0.9403133392333984,
        0.8927707672119141
      ],
      "min": [
        -1.0751985311508179,
        -1.343766450881958,
        -0.8301888704299927
      ],
      "type": "VEC3"
    },
    {
      "bufferView": 2,
      "byteOffset": 30444,
      "componentType": 5126,
      "count": 2537,
      "max": [
        0.9987112879753113,
        0.9970887899398804,
        0.9974530339241028
      ],
      "min": [
        -0.9995039105415344,
        -0.9994626641273499,
        -0.9997336268424988
      ],
      "type": "VEC3"
    },
    {
      "bufferView": 1,
      "componentType": 5126,
      "count": 2537,
      "max": [
        0.9225367903709412,
        0.9965618848800659
      ],
      "min": [
        0.019230278208851814,
        0.015371806919574738
      ],
      "type": "VEC2"
    },
    {
      "bufferView": 0,
      "componentType": 5125,
      "count": 12672,
      "type": "SCALAR"
    },
    {
      "bufferView": 2,
      "byteOffset": 60888,
      "componentType": 5126,
      "count": 2537,
      "max": [
        0.7528460621833801,
        0.960239589214325,
        0.9127180576324463
      ],
      "min": [
        -1.0951529741287231,
        -1.3637043237686157,
        -0.8501771688461304
      ],
      "type": "VEC3"
    },
    {
      "bufferView": 2,
      "byteOffset": 91332,
      "componentType": 5126,
      "count": 2537,
      "max": [
        0.999517560005188,
        0.999462902545929,
        0.9997317790985107
      ],
      "min": [
        -0.9987643361091614,
        -0.9972233772277832,
        -0.9975361227989197
      ],
      "type": "VEC3"
    },
    {
      "bufferView": 1,
      "byteOffset": 20296,
      "componentType": 5126,
      "count": 2537,
      "max": [
        0.9225367903709412,
        0.9965618848800659
      ],
      "min": [
        0.019230278208851814,
        0.015371806919574738
      ],
      "type": "VEC2"
    },
    {
      "bufferView": 0,
      "byteOffset": 50688,
      "componentType": 5125,
      "count": 12672,
      "type": "SCALAR"
    },
    {
      "bufferView": 2,
      "byteOffset": 121776,
      "componentType": 5126,
      "count": 536,
      "max": [
        6.498449325561523,
        5.448246955871582,
        -2.270414113998413
      ],
      "min": [
        -3.859530448913574,
        -2.90975284576416,
        -5.658231258392334
      ],
      "type": "VEC3"
    },
    {
      "bufferView": 2,
      "byteOffset": 128208,
      "componentType": 5126,
      "count": 536,
      "max": [
        0.9074732661247253,
        0.9604748487472534,
        0.996882438659668
      ],
      "min": [
        -0.953427791595459,
        -0.9437432289123535,
        -0.9978190660476685
      ],
      "type": "VEC3"
    },
    {
      "bufferView": 1,
      "byteOffset": 40592,
      "componentType": 5126,
      "count": 536,
      "max": [
        0.9995291829109192,
        0.999289870262146
      ],
      "min": [
        0.0004707889456767589,
        0.0004707889456767589
      ],
      "type": "VEC2"
    },
    {
      "bufferView": 0,
      "byteOffset": 101376,
      "componentType": 5125,
      "count": 726,
      "type": "SCALAR"
    },
    {
      "bufferView": 2,
      "byteOffset": 134640,
      "componentType": 5126,
      "count": 376,
      "max": [
        6.600064277648926,
        5.5564961433410645,
        -2.1897237300872803
      ],
      "min": [
        -3.9703967571258545,
        -3.0200119018554688,
        -5.764214038848877
      ],
      "type": "VEC3"
    },
    {
      "bufferView": 2,
      "byteOffset": 139152,
      "componentType": 5126,
      "count": 376,
      "max": [
        0.962710976600647,
        0.948258638381958,
        0.9993899464607239
      ],
      "min": [
        -0.9059684872627258,
        -0.9609315991401672,
        -0.9944900274276733
      ],
      "type": "VEC3"
    },
    {
      "bufferView": 1,
      "byteOffset": 44880,
      "componentType": 5126,
      "count": 376,
      "max": [
        0.9995291829109192,
        0.999289870262146
      ],
      "min": [
        0.0004707889456767589,
        0.0004707889456767589
      ],
      "type": "VEC2"
    },
    {
      "bufferView": 0,
      "byteOffset": 104280,
      "componentType": 5125,
      "count": 486,
      "type": "SCALAR"
    },
    {
      "bufferView": 2,
      "byteOffset": 143664,
      "componentType": 5126,
      "count": 1383,
      "max": [
        0.19009974598884583,
        0.34388306736946106,
        -0.7777559757232666
      ],
      "min": [
        -0.3712625503540039,
        -0.2522299587726593,
        -2.4148030281066895
      ],
      "type": "VEC3"
    },
    {
      "bufferView": 2,
      "byteOffset": 160260,
      "componentType": 5126,
      "count": 1383,
      "max": [
        0.9996481537818909,
        0.99989914894104,
        0.9125450253486633
      ],
      "min": [
        -0.9991106986999512,
        -0.9995704889297485,
        -0.9490561485290527
      ],
      "type": "VEC3"
    },
    {
      "bufferView": 1,
      "byteOffset": 47888,
      "componentType": 5126,
      "count": 1383,
      "max": [
        0.8402823805809021,
        0.9999083876609802
      ],
      "min": [
        9.165352093987167e-05,
        9.165350638795644e-05
      ],
      "type": "VEC2"
    },
    {
      "bufferView": 0,
      "byteOffset": 106224,
      "componentType": 5125,
      "count": 7296,
      "type": "SCALAR"
    },
    {
      "bufferView": 2,
      "byteOffset": 176856,
      "componentType": 5126,
      "count": 1317,
      "max": [
        0.19009974598884583,
        0.36385682225227356,
        -0.7777559757232666
      ],
      "min": [
        -0.38676828145980835,
        -0.2522299587726593,
        -2.4114725589752197
      ],
      "type": "VEC3"
    },
    {
      "bufferView": 2,
      "byteOffset": 192660,
      "componentType": 5126,
      "count": 1317,
      "max": [
        0.9991409182548523,
        0.9994853734970093,
        0.9128279685974121
      ],
      "min": [
        -0.9996314644813538,
        -0.999895453453064,
        -0.9490561485290527
      ],
      "type": "VEC3"
    },
    {
      "bufferView": 1,
      "byteOffset": 58952,
      "componentType": 5126,
      "count": 1317,
      "max": [
        0.8402823805809021,
        0.9999083876609802
      ],
      "min": [
        9.165352093987167e-05,
        9.165350638795644e-05
      ],
      "type": "VEC2"
    },
    {
      "bufferView": 0,
      "byteOffset": 135408,
      "componentType": 5125,
      "count": 6912,
      "type": "SCALAR"
    },
    {
      "bufferView": 2,
      "byteOffset": 208464,
      "componentType": 5126,
      "count": 1729,
      "max": [
        1.1531929969787598,
        1.0643503665924072,
        -2.212916135787964
      ],
      "min": [
        -1.1522221565246582,
        -0.9405367374420166,
        -2.4192986488342285
      ],
      "type": "VEC3"
    },
    {
      "bufferView": 2,
      "byteOffset": 229212,
      "componentType": 5126,
      "count": 1729,
      "max": [
        0.9276975393295288,
        0.9340041279792786,
        0.9999104738235474
      ],
      "min": [
        -0.935839831829071,
        -0.9317376017570496,
        -0.9998780488967896
      ],
      "type": "VEC3"
    },
    {
      "bufferView": 1,
      "byteOffset": 69488,
      "componentType": 5126,
      "count": 1729,
      "max": [
        0.9775034785270691,
        0.9625491499900818
      ],
      "min": [
        0.04520202800631523,
        0.04222080484032631
      ],
      "type": "VEC2"
    },
    {
      "bufferView": 0,
      "byteOffset": 163056,
      "componentType": 5125,
      "count": 8448,
      "type": "SCALAR"
    },
    {
      "bufferView": 2,
      "byteOffset": 249960,
      "componentType": 5126,
      "count": 1729,
      "max": [
        1.1810238361358643,
        1.0910836458206177,
        -2.1829187870025635
      ],
      "min": [
        -1.1802973747253418,
        -0.9683688879013062,
        -2.449282646179199
      ],
      "type": "VEC3"
    },
    {
      "bufferView": 2,
      "byteOffset": 270708,
      "componentType": 5126,
      "count": 1729,
      "max": [
        0.9627242684364319,
        0.9433269500732422,
        0.99998939037323
      ],
      "min": [
        -0.946696400642395,
        -0.9525072574615479,
        -0.9999123811721802
      ],
      "type": "VEC3"
    },
    {
      "bufferView": 1,
      "byteOffset": 83320,
      "componentType": 5126,
      "count": 1729,
      "max": [
        0.9775034785270691,
        0.9625491499900818
      ],
      "min": [
        0.04520202800631523,
        0.04222080484032631
      ],
      "type": "VEC2"
    },
    {
      "bufferView": 0,
      "byteOffset": 196848,
      "componentType": 5125,
      "count": 8448,
      "type": "SCALAR"
    },
    {
      "bufferView": 2,
      "byteOffset": 291456,
      "componentType": 5126,
      "count": 3008,
      "max": [
        6.617462635040283,
        5.568625450134277,
        -2.176271677017212
      ],
      "min": [
        -3.9856419563293457,
        -3.040022373199463,
        -5.781256198883057
      ],
      "type": "VEC3"
    },
    {
      "bufferView": 2,
      "byteOffset": 327552,
      "componentType": 5126,
      "count": 3008,
      "max": [
        0.9986634850502014,
        0.999255895614624,
        0.9998776316642761
      ],
      "min": [
        -0.9984537959098816,
        -0.9990331530570984,
        -0.9997519254684448
      ],
      "type": "VEC3"
    },
    {
      "bufferView": 1,
      "byteOffset": 97152,
      "componentType": 5126,
      "count": 3008,
      "max": [
        0.9995291829109192,
        0.999289870262146
      ],
      "min": [
        0.0004707889456767589,
        0.0004707889456767589
      ],
      "type": "VEC2"
    },
    {
      "bufferView": 0,
      "byteOffset": 230640,
      "componentType": 5125,
      "count": 4512,
      "type": "SCALAR"
    }
  ],
  "asset": {
    "extras": {
      "author": "MItzuwu (https://sketchfab.com/MItzuwu)",
      "license": "CC-BY-4.0 (http://creativecommons.org/licenses/by/4.0/)",
      "source": "https://sketchfab.com/3d-models/snow-pea-plants-vs-zombies-14ad5ee747bf49ddb254dd077b0b590a",
      "title": "Snow Pea / Plants vs. Zombies"
    },
    "generator": "Sketchfab-15.30.0",
    "version": "2.0"
  },
  "bufferViews": [
    {
      "buffer": 0,
      "byteLength": 248688,
      "name": "floatBufferViews",
      "target": 34963
    },
    {
      "buffer": 0,
      "byteLength": 121216,
      "byteOffset": 248688,
      "byteStride": 8,
      "name": "floatBufferViews",
      "target": 34962
    },
    {
      "buffer": 0,
      "byteLength": 363648,
      "byteOffset": 369904,
      "byteStride": 12,
      "name": "floatBufferViews",
      "target": 34962
    }
  ],
  "buffers": [
    {
      "byteLength": 733552,
      "uri": "scene.bin"
    }
  ],
  "images": [
    {
      "uri": "textures/Material.002_baseColor.png"
    },
    {
      "uri": "textures/Material_baseColor.png"
    },
    {
      "uri": "textures/Material.004_baseColor.png"
    }
  ],
  "materials": [
    {
      "doubleSided": true,
      "name": "Material.002",
      "pbrMetallicRoughness": {
        "baseColorTexture": {
          "index": 0
        },
        "metallicFactor": 0.0,
        "roughnessFactor": 0.8040408205773457
      }
    },
    {
      "name": "Material.007",
      "pbrMetallicRoughness": {
        "baseColorFactor": [
          0.007088869999999996,
          0.07988559999999999,
          0.10928799999999997,
          1.0
        ],
        "metallicFactor": 0.0,
        "roughnessFactor": 0.9851230219404172
      }
    },
    {
      "doubleSided": true,
      "name": "Material.003",
      "pbrMetallicRoughness": {
        "baseColorFactor": [
          0.1017543496987619,
          0.3803295399920486,
          0.43679547053697293,
          1.0
        ],
        "metallicFactor": 0.0,
        "roughnessFactor": 0.8040408205773457
      }
    },
    {
      "name": "Material.006",
      "pbrMetallicRoughness": {
        "baseColorFactor": [
          0.0,
          0.029643699999999978,
          0.155719,
          1.0
        ],
        "metallicFactor": 0.0,
        "roughnessFactor": 0.9927452818146708
      }
    },
    {
      "doubleSided": true,
      "name": "Material",
      "pbrMetallicRoughness": {
        "baseColorTexture": {
          "index": 1
        },
        "metallicFactor": 0.0,
        "roughnessFactor": 0.8040408205773457
      }
    },
    {
      "name": "Material.005",
      "pbrMetallicRoughness": {
        "baseColorFactor": [
          0.0693344,
          0.203893,
          0.173412,
          1.0
        ],
        "metallicFactor": 0.0,
        "roughnessFactor": 0.9612969920454898
      }
    },
    {
      "doubleSided": true,
      "name": "Material.004",
      "pbrMetallicRoughness": {
        "baseColorTexture": {
          "index": 2
        },
        "metallicFactor": 0.0,
        "roughnessFactor": 0.8040408205773457
      }
    },
    {
      "name": "Material.011",
      "pbrMetallicRoughness": {
        "baseColorFactor": [
          0.0,
          0.0,
          0.0,
          1.0
        ],
        "metallicFactor": 0.0
      }
    },
    {
      "name": "Material.010",
      "pbrMetallicRoughness": {
        "baseColorFactor": [
          0.8,
          0.8,
          0.8,
          1.0
        ],
        "metallicFactor": 0.0,
        "roughnessFactor": 0.8211145618000169
      }
    }
  ],
  "meshes": [
    {
      "name": "snow pee_Material.002_0",
      "primitives": [
        {
          "attributes": {
            "NORMAL": 1,
            "POSITION": 0,
            "TEXCOORD_0": 2
          },
          "indices": 3,
          "material": 0,
          "mode": 4
        }
      ]
    },
    {
      "name": "snow pee_Material.007_0",
      "primitives": [
        {
          "attributes": {
            "NORMAL": 5,
            "POSITION": 4,
            "TEXCOORD_0": 6
          },
          "indices": 7,
          "material": 1,
          "mode": 4
        }
      ]
    },
    {
      "name": "Cube.001_Material.003_0",
      "primitives": [
        {
          "attributes": {
            "NORMAL": 9,
            "POSITION": 8,
            "TEXCOORD_0": 10
          },
          "indices": 11,
          "material": 2,
          "mode": 4
        }
      ]
    },
    {
      "name": "Cube.001_Material.006_0",
      "primitives": [
        {
          "attributes": {
            "NORMAL": 13,
            "POSITION": 12,
            "TEXCOORD_0": 14
          },
          "indices": 15,
          "material": 3,
          "mode": 4
        }
      ]
    },
    {
      "name": "snow pee.001_Material_0",
      "primitives": [
        {
          "attributes": {
            "NORMAL": 17,
            "POSITION": 16,
            "TEXCOORD_0": 18
          },
          "indices": 19,
          "material": 4,
          "mode": 4
        }
      ]
    },
    {
      "name": "snow pee.001_Material.005_0",
      "primitives": [
        {
          "attributes": {
            "NORMAL": 21,
            "POSITION": 20,
            "TEXCOORD_0": 22
          },
          "indices": 23,
          "material": 5,
          "mode": 4
        }
      ]
    },
    {
      "name": "snow pee.002_Material.004_0",
      "primitives": [
        {
          "attributes": {
            "NORMAL": 25,
            "POSITION": 24,
            "TEXCOORD_0": 26
          },
          "indices": 27,
          "material": 6,
          "mode": 4
        }
      ]
    },
    {
      "name": "snow pee.002_Material.011_0",
      "primitives": [
        {
          "attributes": {
            "NORMAL": 29,
            "POSITION": 28,
            "TEXCOORD_0": 30
          },
          "indices": 31,
          "material": 7,
          "mode": 4
        }
      ]
    },
    {
      "name": "Cube.002_Material.010_0",
      "primitives": [
        {
          "attributes": {
            "NORMAL": 33,
            "POSITION": 32,
            "TEXCOORD_0": 34
          },
          "indices": 35,
          "material": 8,
          "mode": 4
        }
      ]
    }
  ],
  "nodes": [
    {
      "children": [
        1
      ],
      "matrix": [
        1.0,
        0.0,
        0.0,
        0.0,
        0.0,
        2.220446049250313e-16,
        -1.0,
        0.0,
        0.0,
        1.0,
        2.220446049250313e-16,
        0.0,
        0.0,
        0.0,
        0.0,
        1.0
      ],
      "name": "Sketchfab_model"
    },
    {
      "children": [
        2
      ],
      "matrix": [
        0.009999999776482582,
        0.0,
        0.0,
        0.0,
        0.0,
        0.0,
        0.009999999776482582,
        0.0,
        0.0,
        -0.009999999776482582,
        0.0,
        0.0,
        0.0,
        0.0,
        0.0,
        1.0
      ],
      "name": "fa0a00d9733545acb95a33b0a47978a3.fbx"
    },
    {
      "children": [
        3,
        6,
        9,
        12,
        15
      ],
      "name": "RootNode"
    },
    {
      "children": [
        4,
        5
      ],
      "matrix": [
        29.878639221191406,
        0.0,
        0.0,
        0.0,
        -0.0,
        -4.8678482012199245e-06,
        -29.878639221191012,
        0.0,
        0.0,
        29.878639221191012,
        -4.8678482012199245e-06,
        0.0,
        -8.271806125530277e-23,
        1.7881393432617188e-05,
        -2.3283064365386963e-08,
        1.0
      ],
      "name": "snow pee"
    },
    {
      "mesh": 0,
      "name": "snow pee_Material.002_0"
    },
    {
      "mesh": 1,
      "name": "snow pee_Material.007_0"
    },
    {
      "children": [
        7,
        8
      ],
      "matrix": [
        -7.006351107948754,
        1.512252693489641,
        -1.221945039347909,
        0.0,
        -0.6091823761912447,
        -6.0472647339001355,
        -3.9910524685443654,
        0.0,
        -4.254831389828354,
        -8.626459131978086,
        13.72030330725327,
        0.0,
        -17.09895896911621,
        -18.571182250976563,
        27.0960636138916,
        1.0
      ],
      "name": "Cube.001"
    },
    {
      "mesh": 2,
      "name": "Cube.001_Material.003_0"
    },
    {
      "mesh": 3,
      "name": "Cube.001_Material.006_0"
    },
    {
      "children": [
        10,
        11
      ],
      "matrix": [
        29.878639221191406,
        0.0,
        0.0,
        0.0,
        -0.0,
        -4.8678482012199245e-06,
        -29.878639221191012,
        0.0,
        0.0,
        29.878639221191012,
        -4.8678482012199245e-06,
        0.0,
        -8.271806125530277e-23,
        1.7881393432617188e-05,
        -2.3283064365386963e-08,
        1.0
      ],
      "name": "snow pee.001"
    },
    {
      "mesh": 4,
      "name": "snow pee.001_Material_0"
    },
    {
      "mesh": 5,
      "name": "snow pee.001_Material.005_0"
    },
    {
      "children": [
        13,
        14
      ],
      "matrix": [
        29.878639221191406,
        0.0,
        0.0,
        0.0,
        -0.0,
        -4.8678482012199245e-06,
        -29.878639221191012,
        0.0,
        0.0,
        29.878639221191012,
        -4.8678482012199245e-06,
        0.0,
        -8.271806125530277e-23,
        1.7881393432617188e-05,
        -2.3283064365386963e-08,
        1.0
      ],
      "name": "snow pee.002"
    },
    {
      "mesh": 6,
      "name": "snow pee.002_Material.004_0"
    },
    {
      "mesh": 7,
      "name": "snow pee.002_Material.011_0"
    },
    {
      "children": [
        16
      ],
      "matrix": [
        -7.006351107948754,
        1.512252693489641,
        -1.221945039347909,
        0.0,
        -0.6091823761912447,
        -6.0472647339001355,
        -3.9910524685443654,
        0.0,
        -4.254831389828354,
        -8.626459131978086,
        13.72030330725327,
        0.0,
        -17.009897232055664,
        -18.57098388671875,
        27.0960636138916,
        1.0
      ],
      "name": "Cube.002"
    },
    {
      "mesh": 8,
      "name": "Cube.002_Material.010_0"
    }
  ],
  "samplers": [
    {
      "magFilter": 9729,
      "minFilter": 9987,
      "wrapS": 10497,
      "wrapT": 10497
    }
  ],
  "scene": 0,
  "scenes": [
    {
      "name": "Sketchfab_Scene",
      "nodes": [
        0
      ]
    }
  ],
  "textures": [
    {
      "sampler": 0,
      "source": 0
    },
    {
      "sampler": 0,
      "source": 1
    },
    {
      "sampler": 0,
      "source": 2
    }
  ]
}
